HIERARCHY
ROOT Hips
{
	OFFSET	0.00	0.00	0.00
	CHANNELS 6 Xposition Yposition Zposition Zrotation Xrotation Yrotation
	JOINT LeftUpLeg
	{
		OFFSET	 0.126116	-0.065224	 0.014019
		CHANNELS 3 Zrotation Xrotation Yrotation
		JOINT LeftLeg
		{
			OFFSET	 0.000000	 0.569914	 0.000000
			CHANNELS 3 Zrotation Xrotation Yrotation
			JOINT LeftFoot
			{
				OFFSET	 0.000000	 0.544423	 0.000000
				CHANNELS 3 Zrotation Xrotation Yrotation
				JOINT LeftToeBase
				{
					OFFSET	 0.000000	 0.207117	 0.000000
					CHANNELS 3 Zrotation Xrotation Yrotation
					End Site
					{
						OFFSET	 0.000000	 0.207117	 0.000000
					}
				}
			}
		}
	}
	JOINT RightUpLeg
	{
		OFFSET	-0.124023	-0.065224	 0.008373
		CHANNELS 3 Zrotation Xrotation Yrotation
		JOINT RightLeg
		{
			OFFSET	 0.000000	 0.570047	 0.000000
			CHANNELS 3 Zrotation Xrotation Yrotation
			JOINT RightFoot
			{
				OFFSET	 0.000000	 0.544354	 0.000000
				CHANNELS 3 Zrotation Xrotation Yrotation
				JOINT RightToeBase
				{
					OFFSET	 0.000000	 0.207540	 0.000000
					CHANNELS 3 Zrotation Xrotation Yrotation
					End Site
					{
						OFFSET	 0.000000	 0.207540	 0.000000
					}
				}
			}
		}
	}
	JOINT Spine
	{
		OFFSET	 0.000184	 0.117403	 0.007763
		CHANNELS 3 Zrotation Xrotation Yrotation
		JOINT Spine1
		{
			OFFSET	 0.000000	 0.137269	 0.000000
			CHANNELS 3 Zrotation Xrotation Yrotation
			JOINT Spine2
			{
				OFFSET	 0.000000	 0.156879	 0.000000
				CHANNELS 3 Zrotation Xrotation Yrotation
				JOINT LeftShoulder
				{
					OFFSET	 0.080501	 0.160143	 0.002496
					CHANNELS 3 Zrotation Xrotation Yrotation
					JOINT LeftArm
					{
						OFFSET	 0.000000	 0.164363	 0.000000
						CHANNELS 3 Zrotation Xrotation Yrotation
						JOINT LeftForeArm
						{
							OFFSET	 0.000000	 0.364576	 0.000000
							CHANNELS 3 Zrotation Xrotation Yrotation
							JOINT LeftHand
							{
								OFFSET	 0.000000	 0.360812	 0.000000
								CHANNELS 3 Zrotation Xrotation Yrotation
								JOINT LeftHandIndex1
								{
									OFFSET	 0.000000	 0.086006	 0.000000
									CHANNELS 3 Zrotation Xrotation Yrotation
									JOINT LeftHandIndex2
									{
										OFFSET	 0.000000	 0.047237	 0.000000
										CHANNELS 3 Zrotation Xrotation Yrotation
										JOINT LeftHandIndex3
										{
											OFFSET	-0.004284	 0.038165	 0.000551
											CHANNELS 3 Zrotation Xrotation Yrotation
											End Site
											{
												OFFSET	-0.004284	 0.038165	 0.000551
											}
										}
									}
								}
							}
						}
					}
				}
				JOINT Neck
				{
					OFFSET	 0.000000	 0.176489	 0.000000
					CHANNELS 3 Zrotation Xrotation Yrotation
					JOINT Head
					{
						OFFSET	 0.000000	 0.077941	 0.001747
						CHANNELS 3 Zrotation Xrotation Yrotation
						End Site
						{
							OFFSET	 0.000000	 0.077941	 0.001747
						}
					}
				}
				JOINT RightShoulder
				{
					OFFSET	-0.080363	 0.159706	-0.000306
					CHANNELS 3 Zrotation Xrotation Yrotation
					JOINT RightArm
					{
						OFFSET	 0.000000	 0.164196	 0.000000
						CHANNELS 3 Zrotation Xrotation Yrotation
						JOINT RightForeArm
						{
							OFFSET	 0.000000	 0.365611	 0.000000
							CHANNELS 3 Zrotation Xrotation Yrotation
							JOINT RightHand
							{
								OFFSET	 0.000000	 0.360648	 0.000000
								CHANNELS 3 Zrotation Xrotation Yrotation
								JOINT RightHandIndex1
								{
									OFFSET	 0.000000	 0.069977	 0.000000
									CHANNELS 3 Zrotation Xrotation Yrotation
									JOINT RightHandIndex2
									{
										OFFSET	 0.000000	 0.052305	 0.000000
										CHANNELS 3 Zrotation Xrotation Yrotation
										JOINT RightHandIndex3
										{
											OFFSET	 0.009002	 0.042196	 0.000782
											CHANNELS 3 Zrotation Xrotation Yrotation
											End Site
											{
												OFFSET	 0.009002	 0.042196	 0.000782
											}
										}
									}
								}
							}
						}
					}
				}
			}
		}
	}
}
MOTION
Frames:    8
Frame Time: 0.03333334
-0.105277	 1.251088	-0.063931	 9.904469	-6.219444	-160.251500	 173.785900	 32.860650	 31.857460	 12.902240	-39.986780	 14.909620	 13.554040	 80.225650	-21.053610	 1.130675	 26.263530	-2.647339	-173.042800	 8.403273	 13.448410	-1.795497	-22.467580	 10.160540	 1.162520	 68.165840	-4.007949	-1.918828	 36.033370	 3.017006	-6.171735	 6.313904	 21.392900	-6.992236	 10.651620	 7.593524	 3.629381	-10.149090	-6.580349	-103.679300	 2.610544	 93.050950	 29.371330	 48.740430	 6.599653	 22.258120	-1.122868	 0.137036	 10.051630	 7.275965	 47.504530	 3.894766	 55.100910	-2.236321	-8.789955	 61.515350	 9.100995	 6.615264	 34.449610	 0.048525	 4.062593	-11.899940	-3.870233	 4.612009	-9.534108	-12.347220	 103.521200	 27.263330	-97.892270	-35.033310	 42.448590	-9.694787	-29.216270	-1.100171	-0.228200	 23.251520	-6.326695	-29.520800	-4.899629	 13.071150	-0.626254	 14.085990	 36.508480	-8.856896	-8.484282	 29.652370	-1.616909
-0.108739	 1.253737	-0.060759	 7.792960	-5.403949	-164.643100	 174.544600	 30.284250	 27.112220	 12.391630	-38.870380	 14.048340	 12.283620	 79.074990	-19.087150	 1.139043	 26.377460	-2.650604	-174.726700	 8.533527	 9.787019	-2.004503	-24.781330	 11.084760	 4.990866	 70.613520	-7.696305	-1.832728	 35.059030	 2.970751	-5.150775	 6.329571	 19.720170	-6.921415	 9.867405	 7.490453	 3.808096	-9.163535	-5.581868	-104.189600	 2.456795	 92.870640	 12.745460	 54.241160	 13.808640	 24.426960	-1.225859	 0.181525	 11.408060	 3.843194	 43.515330	 3.884364	 55.192780	-2.230631	-8.745331	 61.328870	 9.040871	 6.623461	 34.623640	 0.047600	 4.121227	-10.703460	-3.436648	 3.196645	-8.922434	-10.215390	 105.565500	 25.630230	-97.966670	-15.576680	 44.924560	-16.317880	-31.714650	-1.184911	-0.278010	 5.988361	-13.562170	-41.841340	-4.824932	 12.686760	-0.596979	 14.055060	 36.318700	-8.797792	-8.486684	 29.451310	-1.602633
-0.101173	 1.254837	-0.056009	 6.023511	-4.281466	-168.828400	 175.793900	 27.964800	 22.718430	 11.986390	-37.956970	 13.378370	 10.755630	 78.191510	-17.428760	 1.148964	 26.512290	-2.654495	-175.431500	 8.483116	 6.224138	-2.155889	-26.405380	 11.258210	 7.239826	 72.227290	-9.778471	-1.750852	 34.111250	 2.927972	-4.192628	 6.459894	 17.232690	-5.921984	 8.453143	 6.567913	 3.575816	-7.855244	-4.637217	-104.573700	 2.575362	 92.777700	 0.934297	 56.172110	 21.314410	 27.395930	-1.364005	 0.248604	 11.611050	-0.568851	 39.248850	 3.694180	 53.839020	-2.076419	-8.416165	 59.859130	 8.589211	 6.575462	 33.598140	 0.052593	 4.116559	-9.831604	-3.010788	 2.278262	-8.295897	-8.095217	 107.301000	 24.151290	-97.973360	-2.436948	 45.384310	-21.579290	-32.865710	-1.223087	-0.302200	-2.773572	-18.386500	-45.081050	-4.500962	 11.501990	-0.427813	 13.778860	 34.530270	-8.253989	-8.508510	 27.289510	-1.451455
-0.088445	 1.255126	-0.051238	 4.474257	-3.333493	-172.872500	 177.136700	 25.939220	 18.494280	 11.576630	-37.008270	 12.868380	 9.623091	 77.466750	-16.381980	 1.149087	 26.514020	-2.654542	-175.613100	 7.982748	 2.971979	-2.167079	-26.523760	 11.283390	 9.226373	 73.880770	-11.701560	-1.573040	 31.980930	 2.839300	-3.336830	 6.425541	 14.461030	-4.786159	 7.093640	 5.639104	 3.177604	-6.577050	-3.624655	-105.075600	 2.961160	 92.755600	-5.505090	 55.999410	 28.091300	 27.281550	-1.358693	 0.245882	 13.671180	-5.872190	 38.966760	 3.335236	 50.713860	-1.789904	-7.838432	 56.781750	 7.752508	 6.463025	 31.140490	 0.060250	 4.100351	-9.201924	-2.564943	 1.647274	-7.545413	-5.787066	 109.030100	 22.496890	-97.914340	 7.910430	 44.009220	-27.202980	-33.595730	-1.247116	-0.317906	-1.214889	-25.980030	-39.103850	-3.867310	 9.328679	-0.072131	 13.286310	 30.815980	-7.192202	-8.533011	 22.743680	-1.144885
-0.069451	 1.256016	-0.043921	 2.757660	-2.222174	-177.597800	 178.899400	 23.353740	 13.584620	 10.856670	-35.278770	 12.108780	 7.877066	 76.342570	-14.850360	 1.149233	 26.516040	-2.654599	-175.713500	 7.508698	-0.818647	-2.156890	-26.416150	 11.328500	 11.296970	 75.613840	-14.087480	-1.373032	 29.466360	 2.746898	-2.412574	 6.259907	 10.994000	-3.138016	 6.073117	 4.350153	 2.518803	-5.329349	-2.416302	-105.668100	 3.416769	 92.733880	-10.567910	 55.248510	 33.786560	 28.410470	-1.410377	 0.273171	 14.028890	-11.089470	 37.926800	 2.968915	 47.024670	-1.510900	-7.307505	 53.145300	 6.910550	 6.334288	 28.239970	 0.062010	 4.074881	-8.458866	-2.039434	 0.898082	-6.687392	-3.058613	 111.000500	 20.634900	-97.761500	 14.558410	 41.298220	-29.179190	-30.596670	-1.147272	-0.255254	 2.008659	-34.001590	-32.716030	-3.106329	 6.768918	 0.376325	 12.825900	 26.424650	-6.032429	-8.528299	 17.380570	-0.796982
-0.051544	 1.257208	-0.035383	 2.153279	-1.713940	-179.949300	-179.351400	 22.048370	 11.021200	 10.298190	-33.881140	 9.938024	-0.932118	 75.456990	-6.494439	 1.149797	 26.523730	-2.654823	-175.106600	 7.582968	-3.174112	-2.124162	-26.068750	 10.954170	 11.979140	 75.329730	-13.884100	-1.351073	 29.182750	 2.737247	-1.528572	 6.156411	 8.687860	-2.121639	 5.652794	 3.563532	 2.187717	-5.073220	-1.844196	-106.470300	 3.792797	 92.730620	-10.326930	 53.163760	 33.630130	 31.443460	-1.546235	 0.351437	 17.905400	-22.488960	 32.382200	 2.039330	 36.192460	-0.890350	-6.329360	 41.954510	 4.931413	 5.954163	 19.283150	 0.023757	 4.006395	-8.220104	-1.693258	 0.484801	-6.534052	-1.519119	 112.813800	 19.123000	-97.636000	 17.643510	 41.482880	-28.555500	-30.423560	-1.141427	-0.251779	-1.228147	-34.019870	-32.422210	-2.819246	 5.769609	 0.573707	 12.676530	 24.698220	-5.599369	-8.518740	 15.510200	-0.677875
-0.033324	 1.258164	-0.025555	 1.734782	-1.304943	 178.043000	-177.541200	 20.857400	 8.793846	 9.738881	-32.431320	 7.512007	-9.944793	 74.204240	 2.072458	 1.150382	 26.531710	-2.655055	-174.341300	 7.995964	-5.355576	-2.124462	-26.071960	 10.527150	 12.312580	 75.026250	-13.214720	-1.344783	 29.101320	 2.734500	-0.621903	 6.013921	 6.726618	-1.644122	 5.563968	 3.066893	 2.085088	-5.054622	-1.346833	-107.268700	 4.151374	 92.733710	-5.975850	 50.720030	 29.724560	 32.523540	-1.593628	 0.381050	 19.776240	-33.054150	 26.457270	 1.311999	 24.944190	-0.518182	-5.922215	 30.301650	 3.385785	 5.569735	 9.998193	-0.077712	 3.935393	-8.032300	-1.372254	 0.114882	-6.451744	-0.125220	 114.553300	 17.686880	-97.475590	 20.005700	 43.761440	-28.006160	-30.473550	-1.143147	-0.252837	-2.839431	-33.857930	-31.828340	-2.580085	 4.934387	 0.745388	 12.563870	 23.251150	-5.244792	-8.508118	 13.995240	-0.581916
-0.019669	 1.258924	-0.016706	 1.391135	-0.957337	 176.323600	-176.231300	 19.726890	 6.963162	 9.210303	-31.014540	 5.230305	-16.537330	 72.705790	 8.545822	 1.150899	 26.538750	-2.655260	-173.739800	 8.541440	-7.249879	-2.162064	-26.470900	 10.128070	 12.875460	 74.979910	-12.799180	-1.339368	 29.031100	 2.732141	 0.148533	 5.864395	 4.985020	-1.306308	 5.548598	 2.582201	 2.030569	-5.069890	-0.921916	-107.961800	 4.460888	 92.740210	-1.779009	 49.050430	 26.182930	 32.619940	-1.597845	 0.383703	 19.333410	-41.851450	 20.958270	 0.797594	 15.449240	-0.339783	-5.868072	 20.471900	 2.263748	 5.236912	 2.140625	-0.210718	 3.871983	-7.872558	-1.095058	-0.201021	-6.385358	 1.069299	 116.042500	 16.452340	-97.302000	 20.328850	 45.181580	-26.119540	-28.776000	-1.085093	-0.219831	-4.093710	-31.856160	-30.557860	-2.375630	 4.227725	 0.893665	 12.476960	 22.025490	-4.949897	-8.497142	 12.712400	-0.500904
